<svg width="32" height="33" viewBox="0 0 32 33" fill="none" xmlns="http://www.w3.org/2000/svg">
<g clip-path="url(#clip0_18_72729)">
<path d="M16 32.496C24.8366 32.496 32 25.3326 32 16.496C32 7.65948 24.8366 0.496033 16 0.496033C7.16344 0.496033 0 7.65948 0 16.496C0 25.3326 7.16344 32.496 16 32.496Z" fill="#2C3A4B"/>
<path d="M21.2026 5.40717H17.6582C15.5548 5.40717 13.2153 6.29181 13.2153 9.34072C13.2256 10.4031 13.2153 11.4205 13.2153 12.5655H10.782V16.4377H13.2906V27.5848H17.9003V16.3641H20.9428L21.2181 12.5547H17.8208C17.8208 12.5547 17.8284 10.8601 17.8208 10.368C17.8208 9.16312 19.0745 9.23212 19.15 9.23212C19.7465 9.23212 20.9065 9.23385 21.2043 9.23212V5.40717H21.2026Z" fill="white"/>
</g>
<defs>
<clipPath id="clip0_18_72729">
<rect width="32" height="32" fill="white" transform="translate(0 0.496002)"/>
</clipPath>
</defs>
</svg>
