<svg width="32" height="33" viewBox="0 0 32 33" fill="none" xmlns="http://www.w3.org/2000/svg">
<path d="M16.6375 31.216C8.52004 31.216 1.91504 24.6135 1.91504 16.496C1.91504 8.3785 8.52004 1.776 16.6375 1.776C20.315 1.776 23.835 3.1385 26.5525 5.6135L27.0475 6.066L22.1925 10.921L21.7425 10.536C20.3175 9.316 18.505 8.6435 16.6375 8.6435C12.3075 8.6435 8.78254 12.166 8.78254 16.496C8.78254 20.826 12.3075 24.3485 16.6375 24.3485C19.76 24.3485 22.2275 22.7535 23.39 20.036H15.9975V13.4085L30.43 13.4285L30.5375 13.936C31.29 17.5085 30.6875 22.7635 27.6375 26.5235C25.1125 29.636 21.4125 31.216 16.6375 31.216Z" fill="#2C3A4B"/>
</svg>
