<svg width="32" height="33" viewBox="0 0 32 33" fill="none" xmlns="http://www.w3.org/2000/svg">
<path d="M28.4975 22.736C27.8075 24.2685 27.475 24.9535 26.5875 26.306C25.345 28.196 23.5925 30.556 21.4275 30.571C19.5 30.5885 19.0025 29.3135 16.385 29.336C13.77 29.3485 13.225 30.596 11.295 30.576C9.12753 30.556 7.47003 28.431 6.22753 26.5435C2.75253 21.251 2.38503 15.046 4.53253 11.746C6.05253 9.40602 8.45503 8.03102 10.7125 8.03102C13.0125 8.03102 14.4575 9.29352 16.3575 9.29352C18.2025 9.29352 19.325 8.02852 21.985 8.02852C23.995 8.02852 26.12 9.12352 27.64 11.0135C22.67 13.7385 23.4775 20.836 28.4975 22.736ZM19.965 5.91602C20.9325 4.67352 21.6675 2.92102 21.4 1.13602C19.8225 1.24352 17.9775 2.25102 16.9 3.55602C15.9225 4.74602 15.1125 6.51102 15.4275 8.21852C17.15 8.27352 18.9325 7.24602 19.965 5.91602Z" fill="#2C3A4B"/>
</svg>
