<svg width="572" height="64" viewBox="0 0 572 64" fill="none" xmlns="http://www.w3.org/2000/svg">
<path d="M99.8011 20.141H106.341L112.702 42.3924L119.122 20.141H125.483L115.485 49.4516H109.7L99.8011 20.141Z" fill="#09101D"/>
<path d="M143.254 43.4264H132.46L130.433 49.4516H124.032L134.488 20.141H141.406L151.782 49.4516H145.143L143.254 43.4264ZM141.545 38.3756L137.887 26.8422L134.11 38.3756H141.545Z" fill="#09101D"/>
<path d="M179.213 49.4516H173.091L161.124 28.6319V49.4516H155.419V20.141H161.84L173.508 40.6028V20.141H179.213V49.4516Z" fill="#09101D"/>
<path d="M197.56 49.4516H184.938V20.141H197.56C199.376 20.1675 200.887 20.3796 202.093 20.7773C204.147 21.4534 205.81 22.6929 207.082 24.4958C208.102 25.954 208.798 27.5316 209.169 29.2285C209.54 30.9253 209.726 32.5426 209.726 34.0804C209.726 37.9779 208.944 41.2788 207.38 43.9832C205.26 47.6288 201.987 49.4516 197.56 49.4516ZM202.113 27.6178C201.172 26.027 199.31 25.2316 196.527 25.2316H190.882V44.361H196.527C199.416 44.361 201.43 42.9359 202.57 40.0857C203.193 38.5214 203.504 36.6589 203.504 34.498C203.504 31.5152 203.04 29.2218 202.113 27.6178Z" fill="#09101D"/>
<path d="M234.752 36.6456H220.519V44.1821H236.74V49.4516H214.536V20.141H236.024V25.331H220.519V31.555H234.752V36.6456Z" fill="#09101D"/>
<path d="M241.51 20.141H247.633V44.1821H262.144V49.4516H241.51V20.141Z" fill="#09101D"/>
<path d="M283.552 43.4264H272.758L270.731 49.4516H264.33L274.786 20.141H281.704L292.08 49.4516H285.441L283.552 43.4264ZM281.843 38.3756L278.185 26.8422L274.408 38.3756H281.843Z" fill="#09101D"/>
<path d="M315.734 20.141L305.935 38.4353V49.4516H299.812V38.4353L289.675 20.141H296.89L302.973 32.9072L308.797 20.141H315.734Z" fill="#09101D"/>
<path d="M329.371 20.141H335.453V49.4516H329.371V20.141Z" fill="#09101D"/>
<path d="M364.873 49.4516H358.75L346.784 28.6319V49.4516H341.079V20.141H347.499L359.168 40.6028V20.141H364.873V49.4516Z" fill="#09101D"/>
<path d="M383.22 49.4516H370.597V20.141H383.22C385.035 20.1675 386.546 20.3796 387.752 20.7773C389.806 21.4534 391.469 22.6929 392.741 24.4958C393.762 25.954 394.457 27.5316 394.829 29.2285C395.2 30.9253 395.385 32.5426 395.385 34.0804C395.385 37.9779 394.603 41.2788 393.04 43.9832C390.919 47.6288 387.646 49.4516 383.22 49.4516ZM387.772 27.6178C386.831 26.027 384.969 25.2316 382.186 25.2316H376.541V44.361H382.186C385.075 44.361 387.089 42.9359 388.229 40.0857C388.852 38.5214 389.163 36.6589 389.163 34.498C389.163 31.5152 388.699 29.2218 387.772 27.6178Z" fill="#09101D"/>
<path d="M417.35 38.1569V20.141H423.572V38.1569C423.572 41.2722 423.088 43.6982 422.121 45.4348C420.319 48.6165 416.88 50.2073 411.804 50.2073C406.729 50.2073 403.283 48.6165 401.468 45.4348C400.5 43.6982 400.017 41.2722 400.017 38.1569V20.141H406.238V38.1569C406.238 40.1719 406.477 41.6434 406.954 42.5714C407.696 44.2152 409.313 45.0371 411.804 45.0371C414.282 45.0371 415.892 44.2152 416.635 42.5714C417.112 41.6434 417.35 40.1719 417.35 38.1569Z" fill="#09101D"/>
<path d="M440.071 45.2161C441.515 45.2161 442.688 45.057 443.589 44.7389C445.298 44.129 446.153 42.9956 446.153 41.3385C446.153 40.3708 445.729 39.6218 444.881 39.0915C444.033 38.5745 442.701 38.1171 440.886 37.7194L437.785 37.0234C434.737 36.3341 432.63 35.5851 431.463 34.7764C429.489 33.4242 428.502 31.3098 428.502 28.4331C428.502 25.8082 429.456 23.6275 431.364 21.8908C433.272 20.1542 436.075 19.2859 439.772 19.2859C442.86 19.2859 445.491 20.1078 447.664 21.7517C449.85 23.3822 450.997 25.7552 451.103 28.8705H445.219C445.113 27.1074 444.344 25.8546 442.913 25.1122C441.959 24.6217 440.773 24.3765 439.355 24.3765C437.778 24.3765 436.519 24.6947 435.578 25.331C434.637 25.9673 434.167 26.8555 434.167 27.9956C434.167 29.0429 434.631 29.825 435.558 30.342C436.155 30.6867 437.427 31.091 439.375 31.555L444.424 32.768C446.637 33.2983 448.307 34.0075 449.433 34.8957C451.182 36.2744 452.057 38.2696 452.057 40.8811C452.057 43.559 451.03 45.7861 448.976 47.5625C446.935 49.3257 444.046 50.2073 440.309 50.2073C436.493 50.2073 433.491 49.3389 431.304 47.6023C429.118 45.8524 428.025 43.453 428.025 40.4039H433.869C434.054 41.7428 434.419 42.7437 434.962 43.4066C435.956 44.6129 437.659 45.2161 440.071 45.2161Z" fill="#09101D"/>
<path d="M477.878 20.141V25.331H469.112V49.4516H462.95V25.331H454.144V20.141H477.878Z" fill="#09101D"/>
<path d="M493.92 37.958H487.599V49.4516H481.615V20.141H495.987C498.041 20.1807 499.618 20.4326 500.718 20.8966C501.831 21.3606 502.772 22.0433 503.541 22.9448C504.177 23.6871 504.68 24.5091 505.051 25.4105C505.422 26.312 505.608 27.3394 505.608 28.4927C505.608 29.8847 505.257 31.2567 504.554 32.6089C503.852 33.9479 502.692 34.8957 501.076 35.4525C502.427 35.996 503.382 36.7716 503.938 37.7791C504.508 38.7733 504.793 40.2978 504.793 42.3526V44.3213C504.793 45.6602 504.846 46.5683 504.952 47.0455C505.111 47.8012 505.482 48.3579 506.065 48.7159V49.4516H499.326C499.141 48.802 499.008 48.2784 498.929 47.8807C498.77 47.0588 498.684 46.217 498.671 45.3553L498.631 42.631C498.604 40.7618 498.26 39.5157 497.597 38.8926C496.948 38.2696 495.722 37.958 493.92 37.958ZM497.637 32.6288C498.856 32.072 499.466 30.9717 499.466 29.3279C499.466 27.5515 498.876 26.3584 497.697 25.7486C497.034 25.4039 496.04 25.2316 494.715 25.2316H487.599V33.1061H494.536C495.914 33.1061 496.948 32.947 497.637 32.6288Z" fill="#09101D"/>
<path d="M510.418 20.141H516.501V49.4516H510.418V20.141Z" fill="#09101D"/>
<path d="M542.62 36.6456H528.388V44.1821H544.608V49.4516H522.405V20.141H543.893V25.331H528.388V31.555H542.62V36.6456Z" fill="#09101D"/>
<path d="M560.014 45.2161C561.458 45.2161 562.631 45.057 563.532 44.7389C565.242 44.129 566.096 42.9956 566.096 41.3385C566.096 40.3708 565.672 39.6218 564.824 39.0915C563.976 38.5745 562.644 38.1171 560.829 37.7194L557.728 37.0234C554.68 36.3341 552.573 35.5851 551.407 34.7764C549.432 33.4242 548.445 31.3098 548.445 28.4331C548.445 25.8082 549.399 23.6275 551.307 21.8908C553.215 20.1542 556.018 19.2859 559.715 19.2859C562.803 19.2859 565.434 20.1078 567.607 21.7517C569.794 23.3822 570.94 25.7552 571.046 28.8705H565.162C565.056 27.1074 564.287 25.8546 562.856 25.1122C561.902 24.6217 560.716 24.3765 559.298 24.3765C557.721 24.3765 556.462 24.6947 555.521 25.331C554.58 25.9673 554.11 26.8555 554.11 27.9956C554.11 29.0429 554.574 29.825 555.501 30.342C556.098 30.6867 557.37 31.091 559.318 31.555L564.367 32.768C566.58 33.2983 568.25 34.0075 569.376 34.8957C571.125 36.2744 572 38.2696 572 40.8811C572 43.559 570.973 45.7861 568.919 47.5625C566.878 49.3257 563.989 50.2073 560.252 50.2073C556.436 50.2073 553.434 49.3389 551.247 47.6023C549.061 45.8524 547.968 43.453 547.968 40.4039H553.812C553.997 41.7428 554.362 42.7437 554.905 43.4066C555.899 44.6129 557.602 45.2161 560.014 45.2161Z" fill="#09101D"/>
<path d="M60.7143 0H3.26232C1.46059 0 0 1.46112 0 3.26351V30.6299C0 32.4323 1.46059 33.8934 3.26232 33.8934H15.0498V60.7365C15.0488 61.6017 15.3916 62.4318 16.0027 63.0439C16.6139 63.656 17.4433 64 18.3081 64H45.6645C47.4663 64 48.9269 62.5389 48.9269 60.7365V33.9054H60.7143C61.5792 33.9054 62.4086 33.5614 63.0197 32.9493C63.6309 32.3371 63.9737 31.507 63.9727 30.6419V3.26351C63.9737 2.39834 63.6309 1.56825 63.0197 0.956103C62.4086 0.34396 61.5792 0 60.7143 0ZM3.78142 3.78679H30.0956V30.1106H3.78142V3.78679ZM45.1454 60.2172H18.8312V33.9054H45.1454V60.2172ZM60.1912 30.1106H33.877V3.78679H60.1912V30.1106Z" fill="#09101D"/>
<path d="M21.6584 21.3064C22.4036 22.006 23.5693 21.9875 24.292 21.2647C25.0146 20.5418 25.0331 19.3756 24.3337 18.6301L18.2922 12.5864C17.5515 11.8523 16.3577 11.8523 15.6169 12.5864L9.55945 18.6301C9.05594 19.1028 8.84973 19.8123 9.02138 20.4814C9.19304 21.1505 9.71532 21.673 10.3842 21.8447C11.053 22.0164 11.7623 21.8101 12.2348 21.3064L16.9386 16.6009L21.6584 21.3064Z" fill="#09101D"/>
<path d="M42.3305 21.3064L47.0343 16.6009L51.7381 21.3064C52.4833 22.006 53.649 21.9875 54.3717 21.2647C55.0943 20.5418 55.1128 19.3756 54.4134 18.6301L48.372 12.5864C47.6312 11.8523 46.4374 11.8523 45.6966 12.5864L39.6551 18.6301C38.9558 19.3756 38.9743 20.5418 39.6969 21.2647C40.4195 21.9875 41.5853 22.006 42.3305 21.3064Z" fill="#09101D"/>
<path d="M27.2802 42.6932C26.534 41.9946 25.3682 42.0148 24.6466 42.7388C23.9251 43.4628 23.9083 44.6291 24.6088 45.3735L30.6503 51.4132C31.0047 51.7688 31.486 51.9687 31.988 51.9687C32.49 51.9687 32.9713 51.7688 33.3257 51.4132L39.3672 45.3735C39.8458 44.8954 40.0331 44.1982 39.8585 43.5445C39.6839 42.8908 39.174 42.38 38.5208 42.2044C37.8677 42.0287 37.1704 42.2151 36.6918 42.6932L31.988 47.4027L27.2802 42.6932Z" fill="#09101D"/>
</svg>
